<?xml version="1.0" encoding="utf-8"?>
<!-- Generator: Adobe Illustrator 27.6.1, SVG Export Plug-In . SVG Version: 6.00 Build 0)  -->
<svg version="1.1" id="Capa_1" xmlns="http://www.w3.org/2000/svg" xmlns:xlink="http://www.w3.org/1999/xlink" x="0px" y="0px"
	 viewBox="0 0 1920 1080" style="enable-background:new 0 0 1920 1080;" xml:space="preserve">
<style type="text/css">
	.st0{fill:#FFFFFF;}
</style>
<g>
	<g>
		<path class="st0" d="M-2.7-2.6v1085.5h1926.3V-2.6H-2.7z M508.4,513.9c-2.4,4.1-5.8,7.4-10.4,9.8c-4.6,2.4-10.2,3.7-16.7,3.7h-10
			v25.6h-25.3v-80.7h35.3c9.9,0,17.5,2.5,22.7,7.5c5.3,5,7.9,11.7,7.9,20.2C511.9,505.2,510.7,509.8,508.4,513.9z M595.1,533.7
			c-3.7,6.3-8.7,11.2-15,14.8c-6.4,3.6-13.3,5.4-20.8,5.4c-7.6,0-14.6-1.8-20.9-5.4c-6.3-3.6-11.4-8.5-15.1-14.8
			c-3.7-6.3-5.6-13.4-5.6-21.3c0-7.9,1.9-15,5.6-21.3c3.7-6.3,8.8-11.2,15.1-14.8c6.3-3.5,13.3-5.3,20.9-5.3
			c7.6,0,14.6,1.8,20.9,5.3c6.3,3.5,11.3,8.5,15,14.8c3.7,6.3,5.5,13.4,5.5,21.3C600.6,520.3,598.8,527.4,595.1,533.7z M650.3,553.1
			l-15.2-28.9H635v28.9h-25.3v-80.7h37.6c6.5,0,12.1,1.2,16.8,3.5c4.6,2.3,8.1,5.5,10.4,9.5s3.5,8.5,3.5,13.5
			c0,5.4-1.5,10.2-4.5,14.4c-3,4.2-7.3,7.2-12.9,9l17.5,30.9H650.3z M749.5,492.4H728v60.6h-25.3v-60.6h-21.2v-20.1h67.9V492.4z
			 M813.3,492.4h-31.7v11.2h22.8v19h-22.8v30.4h-25.3v-80.7h57V492.4z M897,533.7c-3.7,6.3-8.7,11.2-15,14.8
			c-6.3,3.6-13.3,5.4-20.8,5.4c-7.6,0-14.6-1.8-20.9-5.4c-6.4-3.6-11.4-8.5-15.1-14.8c-3.7-6.3-5.6-13.4-5.6-21.3
			c0-7.9,1.9-15,5.6-21.3c3.7-6.3,8.8-11.2,15.1-14.8c6.3-3.5,13.3-5.3,20.9-5.3c7.6,0,14.6,1.8,20.9,5.3c6.3,3.5,11.3,8.5,15,14.8
			c3.7,6.3,5.5,13.4,5.5,21.3C902.5,520.3,900.7,527.4,897,533.7z M961.4,553.1h-49.7v-80.7H937v61.5h24.4V553.1z M994.7,553.1
			h-25.3v-80.7h25.3V553.1z M1081.2,533.7c-3.7,6.3-8.7,11.2-15,14.8c-6.3,3.6-13.3,5.4-20.8,5.4c-7.6,0-14.6-1.8-20.9-5.4
			c-6.3-3.6-11.4-8.5-15.1-14.8c-3.7-6.3-5.6-13.4-5.6-21.3c0-7.9,1.9-15,5.6-21.3c3.7-6.3,8.8-11.2,15.1-14.8
			c6.3-3.5,13.3-5.3,20.9-5.3c7.6,0,14.5,1.8,20.8,5.3c6.3,3.5,11.3,8.5,15,14.8c3.7,6.3,5.5,13.4,5.5,21.3
			C1086.8,520.3,1084.9,527.4,1081.2,533.7z M1164.9,553.1h-49.7v-80.7h25.3v61.5h24.4V553.1z M1228.7,553.1l-4-12.2h-26.9l-4,12.2
			h-26.6l29.5-80.7h29.2l29.4,80.7H1228.7z M1331.5,533.2c-3.4,6.1-8.3,11-14.6,14.5c-6.3,3.5-13.7,5.3-22.2,5.3H1261v-80.7h33.6
			c8.4,0,15.8,1.7,22.2,5.1c6.3,3.4,11.2,8.2,14.6,14.2c3.4,6.1,5.1,13,5.1,20.8C1336.6,520.2,1334.9,527.1,1331.5,533.2z
			 M1399.5,492.5H1371v9.9h25.1v19H1371v11.4h28.5v20.2h-53.8v-80.7h53.8V492.5z M1449.7,553.1l-15.2-28.9h-0.1v28.9h-25.3v-80.7
			h37.6c6.5,0,12.1,1.2,16.8,3.5c4.6,2.3,8.1,5.5,10.4,9.5c2.3,4,3.5,8.5,3.5,13.5c0,5.4-1.5,10.2-4.5,14.4c-3,4.2-7.3,7.2-12.9,9
			l17.6,30.9H1449.7z"/>
	</g>
	<g>
		<path class="st0" d="M486.3,500.1c0,4.9-2.6,7.4-7.9,7.4h-7.2v-14.8h7.2C483.7,492.7,486.3,495.1,486.3,500.1z"/>
	</g>
	<g>
		<path class="st0" d="M575,512.4c0,5.5-1.4,9.8-4.1,13c-2.7,3.2-6.6,4.8-11.6,4.8c-5.1,0-9-1.6-11.7-4.8c-2.7-3.2-4.1-7.6-4.1-13
			c0-5.6,1.4-9.9,4.1-13.2c2.7-3.2,6.7-4.8,11.7-4.8c5,0,8.9,1.6,11.6,4.8C573.6,502.5,575,506.8,575,512.4z"/>
	</g>
	<g>
		<path class="st0" d="M652.3,500.4c0,2.3-0.6,4.1-1.8,5.2c-1.2,1.1-3,1.7-5.5,1.7h-10v-13.7h10c2.3,0,4.2,0.6,5.4,1.8
			C651.7,496.6,652.3,498.3,652.3,500.4z"/>
	</g>
	<g>
		<path class="st0" d="M876.9,512.4c0,5.5-1.4,9.8-4.1,13c-2.7,3.2-6.6,4.8-11.6,4.8c-5.1,0-9-1.6-11.7-4.8c-2.7-3.2-4.1-7.6-4.1-13
			c0-5.6,1.4-9.9,4.1-13.2c2.7-3.2,6.7-4.8,11.7-4.8c5,0,8.9,1.6,11.6,4.8C875.5,502.5,876.9,506.8,876.9,512.4z"/>
	</g>
	<g>
		<path class="st0" d="M1061.1,512.4c0,5.5-1.4,9.8-4.1,13c-2.7,3.2-6.6,4.8-11.6,4.8c-5.1,0-9-1.6-11.8-4.8
			c-2.7-3.2-4.1-7.6-4.1-13c0-5.6,1.4-9.9,4.1-13.2c2.7-3.2,6.7-4.8,11.8-4.8c5,0,8.9,1.6,11.6,4.8
			C1059.7,502.5,1061.1,506.8,1061.1,512.4z"/>
	</g>
	<g>
		<polygon class="st0" points="1218.5,521.8 1203.9,521.8 1211.2,499.4 		"/>
	</g>
	<g>
		<path class="st0" d="M1311,512.5c0,5.8-1.7,10.2-5,13.3c-3.3,3.1-7.9,4.7-13.6,4.7h-6v-36h6c5.7,0,10.2,1.6,13.6,4.7
			C1309.3,502.3,1311,506.7,1311,512.5z"/>
	</g>
	<g>
		<path class="st0" d="M1451.7,500.4c0,2.3-0.6,4.1-1.8,5.2c-1.2,1.1-3,1.7-5.5,1.7h-10v-13.7h10c2.4,0,4.2,0.6,5.4,1.8
			C1451.1,496.6,1451.7,498.3,1451.7,500.4z"/>
	</g>
</g>
</svg>
